<?xml version="1.0" encoding="UTF-8" standalone="no"?>
<!-- Created with Inkscape (http://www.inkscape.org/) -->

<svg
   xmlns:dc="http://purl.org/dc/elements/1.1/"
   xmlns:cc="http://creativecommons.org/ns#"
   xmlns:rdf="http://www.w3.org/1999/02/22-rdf-syntax-ns#"
   xmlns:svg="http://www.w3.org/2000/svg"
   xmlns="http://www.w3.org/2000/svg"
   xmlns:xlink="http://www.w3.org/1999/xlink"
   xmlns:sodipodi="http://sodipodi.sourceforge.net/DTD/sodipodi-0.dtd"
   xmlns:inkscape="http://www.inkscape.org/namespaces/inkscape"
   width="16.141237mm"
   height="11.541346mm"
   viewBox="0 0 57.19336 40.894531"
   id="svg2"
   version="1.1"
   inkscape:version="0.91 r13725"
   sodipodi:docname="logo-web.svg">
  <defs
     id="defs4">
    <linearGradient
       inkscape:collect="always"
       id="linearGradient4440">
      <stop
         style="stop-color:#000000;stop-opacity:0.18974359"
         offset="0"
         id="stop4442" />
      <stop
         id="stop4451"
         offset="0.25"
         style="stop-color:#000000;stop-opacity:0" />
      <stop
         id="stop4448"
         offset="0.5"
         style="stop-color:#000000;stop-opacity:0" />
      <stop
         style="stop-color:#000000;stop-opacity:0"
         offset="0.75"
         id="stop4453" />
      <stop
         style="stop-color:#000000;stop-opacity:0.18974359"
         offset="1"
         id="stop4444" />
    </linearGradient>
    <linearGradient
       inkscape:collect="always"
       id="linearGradient4185">
      <stop
         style="stop-color:#f7931a;stop-opacity:1;"
         offset="0"
         id="stop4187" />
      <stop
         style="stop-color:#f9aa4b;stop-opacity:1"
         offset="1"
         id="stop4189" />
    </linearGradient>
    <clipPath
       clipPathUnits="userSpaceOnUse"
       id="clipPath4272">
      <rect
         y="-127.36218"
         x="255.25"
         height="78"
         width="156"
         id="rect4274"
         style="fill:url(#linearGradient4276);fill-opacity:1;stroke:none;stroke-width:0.2;stroke-linejoin:miter;stroke-miterlimit:4;stroke-dasharray:none;stroke-opacity:1" />
    </clipPath>
    <linearGradient
       inkscape:collect="always"
       xlink:href="#linearGradient4185"
       id="linearGradient4276"
       gradientUnits="userSpaceOnUse"
       gradientTransform="translate(86.500001,-345.7244)"
       x1="246.75"
       y1="296.36218"
       x2="246.75"
       y2="218.3622" />
    <filter
       id="_drop-shadow"
       style="color-interpolation-filters:sRGB">
      <feGaussianBlur
         id="feGaussianBlur7"
         stdDeviation="1"
         result="blur-out"
         in="SourceAlpha" />
      <feBlend
         id="feBlend9"
         mode="normal"
         in2="blur-out"
         in="SourceGraphic" />
    </filter>
    <linearGradient
       y2="63.996323"
       x2="0.0004394635"
       y1="-0.00059563987"
       x1="0.0004394635"
       id="coin-gradient"
       gradientTransform="matrix(7.9995334,0,0,8.0004664,-528.10523,-153.13564)"
       gradientUnits="userSpaceOnUse">
      <stop
         id="stop12"
         style="stop-color:#f9aa4b"
         offset="0%" />
      <stop
         id="stop14"
         style="stop-color:#f7931a"
         offset="100%" />
    </linearGradient>
    <linearGradient
       inkscape:collect="always"
       xlink:href="#linearGradient4440"
       id="linearGradient4498-7"
       gradientUnits="userSpaceOnUse"
       gradientTransform="translate(183.24977,-293.31934)"
       x1="139.4193"
       y1="453.17322"
       x2="156.42717"
       y2="453.17322" />
    <linearGradient
       inkscape:collect="always"
       xlink:href="#linearGradient4440"
       id="linearGradient4496-9"
       gradientUnits="userSpaceOnUse"
       gradientTransform="translate(154.90332,-293.31934)"
       x1="139.4193"
       y1="453.17322"
       x2="156.42717"
       y2="453.17322" />
    <linearGradient
       inkscape:collect="always"
       xlink:href="#coin-gradient"
       id="linearGradient4494-7"
       gradientUnits="userSpaceOnUse"
       gradientTransform="translate(50.65332,-314.31944)"
       x1="294.69336"
       y1="470.98438"
       x2="294.69336"
       y2="511.37891" />
  </defs>
  <sodipodi:namedview
     id="base"
     pagecolor="#ffffff"
     bordercolor="#666666"
     borderopacity="1.0"
     inkscape:pageopacity="0.0"
     inkscape:pageshadow="2"
     inkscape:zoom="2"
     inkscape:cx="37.36607"
     inkscape:cy="34.003975"
     inkscape:document-units="mm"
     inkscape:current-layer="layer1"
     showgrid="false"
     inkscape:snap-bbox="true"
     inkscape:snap-bbox-midpoints="false"
     showguides="true"
     inkscape:guide-bbox="true"
     inkscape:snap-bbox-edge-midpoints="true"
     inkscape:snap-nodes="true"
     inkscape:snap-others="true"
     inkscape:bbox-nodes="false"
     inkscape:bbox-paths="false"
     inkscape:window-width="1855"
     inkscape:window-height="1056"
     inkscape:window-x="65"
     inkscape:window-y="24"
     inkscape:window-maximized="1"
     fit-margin-top="0"
     fit-margin-left="0"
     fit-margin-right="0"
     fit-margin-bottom="0" />
  <metadata
     id="metadata7">
    <rdf:RDF>
      <cc:Work
         rdf:about="">
        <dc:format>image/svg+xml</dc:format>
        <dc:type
           rdf:resource="http://purl.org/dc/dcmitype/StillImage" />
        <dc:title></dc:title>
      </cc:Work>
    </rdf:RDF>
  </metadata>
  <g
     inkscape:label="Layer 1"
     inkscape:groupmode="layer"
     id="layer1"
     transform="translate(-288.40332,-156.41494)">
    <g
       id="g4187">
      <path
         id="path4484-6"
         d="m 294.32324,156.66494 0,6.37695 -5.66992,0 0,34.01758 56.69336,0 0,-34.01758 -5.66992,0 0,-6.37695 -17.00782,0 0,6.37695 -11.33789,0 0,-6.37695 -17.00781,0 z"
         style="fill:url(#linearGradient4494-7);fill-opacity:1;stroke:none;stroke-width:0.2;stroke-linejoin:miter;stroke-miterlimit:4;stroke-dasharray:none;stroke-opacity:1"
         inkscape:connector-curvature="0" />
      <path
         style="fill:url(#linearGradient4496-9);fill-opacity:1;stroke:none;stroke-width:0.2;stroke-linejoin:miter;stroke-miterlimit:4;stroke-dasharray:none;stroke-opacity:1"
         d="m 294.32261,156.66494 17.00788,0 0,6.37795 -17.00788,0 z"
         id="path4486-7"
         inkscape:connector-curvature="0" />
      <path
         inkscape:connector-curvature="0"
         id="path4488-3"
         d="m 322.66906,156.66494 17.00788,0 0,6.37795 -17.00788,0 z"
         style="fill:url(#linearGradient4498-7);fill-opacity:1;stroke:none;stroke-width:0.2;stroke-linejoin:miter;stroke-miterlimit:4;stroke-dasharray:none;stroke-opacity:1" />
      <path
         inkscape:connector-curvature="0"
         id="path4521-4"
         d="m 326.40662,177.59874 c 0.39351,-2.63042 -1.60927,-4.04447 -4.34779,-4.98779 l 0.88833,-3.56323 -2.16895,-0.54054 -0.86486,3.46933 c -0.57019,-0.14208 -1.15583,-0.27614 -1.73776,-0.40895 l 0.87104,-3.4922 -2.16771,-0.54054 -0.88896,3.562 c -0.47197,-0.10749 -0.93529,-0.21374 -1.38501,-0.32556 l 0.002,-0.0111 -2.99119,-0.74687 -0.57699,2.3166 c 0,0 1.60926,0.3688 1.57529,0.39166 0.87845,0.2193 1.03721,0.80062 1.01065,1.26146 l -1.01189,4.0593 c 0.0605,0.0154 0.139,0.0377 0.22548,0.0723 -0.0723,-0.0179 -0.14949,-0.0377 -0.22919,-0.0568 l -1.41837,5.68647 c -0.10749,0.26688 -0.37992,0.66718 -0.99397,0.51522 0.0216,0.0315 -1.57653,-0.39352 -1.57653,-0.39352 l -1.07675,2.48278 2.82254,0.70362 c 0.5251,0.13159 1.03969,0.26935 1.54625,0.39908 l -0.8976,3.604 2.16648,0.54054 0.88895,-3.5657 c 0.59182,0.16061 1.16633,0.30888 1.72849,0.44849 l -0.88586,3.54903 2.16895,0.54054 0.8976,-3.59722 c 3.69853,0.69993 6.47968,0.41761 7.65033,-2.92756 0.94332,-2.69343 -0.0469,-4.24709 -1.99289,-5.26021 1.41714,-0.3268 2.48463,-1.259 2.76942,-3.18455 z m -4.95567,6.94917 c -0.67027,2.69343 -5.20524,1.23737 -6.6755,0.87228 l 1.19104,-4.77466 c 1.47026,0.36694 6.185,1.09343 5.48446,3.90238 z m 0.67089,-6.98809 c -0.61158,2.45003 -4.38609,1.20525 -5.61049,0.90007 l 1.07984,-4.33049 c 1.2244,0.30518 5.16756,0.87475 4.53065,3.43042 z"
         style="fill:#ffffff" />
      <path
         id="path4484-6-5"
         d="m 294.32324,156.66494 0,6.37695 -5.66992,0 0,34.01758 56.69336,0 0,-34.01758 -5.66992,0 0,-6.37695 -17.00782,0 0,6.37695 -11.33789,0 0,-6.37695 -17.00781,0 z"
         style="fill:none;fill-opacity:1;stroke:#000000;stroke-width:0.5;stroke-linejoin:miter;stroke-miterlimit:4;stroke-dasharray:none;stroke-opacity:1"
         inkscape:connector-curvature="0" />
    </g>
  </g>
</svg>
